# Blender 4.3.2
# www.blender.org
mtllib bowl.mtl
o Sphere
v 0.000000 0.000000 -1.000000
v 0.000000 -0.195090 -0.980785
v 0.000000 -0.555570 -0.831470
v 0.195090 0.000000 -0.980785
v 0.191342 -0.195090 -0.961940
v 0.180240 -0.382683 -0.906127
v 0.162212 -0.555570 -0.815493
v 0.137950 -0.707107 -0.693520
v 0.108386 -0.831470 -0.544895
v 0.074658 -0.923880 -0.375330
v -0.147756 -0.923880 -0.034741
v 0.382683 0.000000 -0.923879
v 0.375330 -0.195090 -0.906127
v 0.353553 -0.382683 -0.853553
v 0.318190 -0.555570 -0.768178
v 0.270598 -0.707107 -0.653281
v 0.212608 -0.831470 -0.513280
v 0.146447 -0.923880 -0.353553
v -0.063071 -0.923880 -0.094392
v 0.555570 0.000000 -0.831469
v 0.544895 -0.195090 -0.815493
v 0.513280 -0.382683 -0.768178
v 0.461940 -0.555570 -0.691342
v 0.392847 -0.707107 -0.587938
v 0.308658 -0.831470 -0.461940
v 0.212608 -0.923880 -0.318190
v 0.024447 -0.923880 -0.149803
v 0.707107 0.000000 -0.707107
v 0.693520 -0.195090 -0.693520
v 0.653281 -0.382683 -0.653281
v 0.587938 -0.555570 -0.587938
v 0.500000 -0.707107 -0.500000
v 0.392847 -0.831470 -0.392847
v 0.270598 -0.923880 -0.270598
v 0.111435 -0.923880 -0.198845
v 0.831470 0.000000 -0.555570
v 0.815493 -0.195090 -0.544895
v 0.768178 -0.382683 -0.513280
v 0.691342 -0.555570 -0.461940
v 0.587938 -0.707107 -0.392847
v 0.461940 -0.831470 -0.308658
v 0.318190 -0.923880 -0.212608
v 0.194550 -0.923880 -0.239632
v 0.923879 0.000000 -0.382683
v 0.906127 -0.195090 -0.375330
v 0.853553 -0.382683 -0.353553
v 0.768178 -0.555570 -0.318190
v 0.653281 -0.707107 -0.270598
v 0.513280 -0.831470 -0.212607
v 0.353553 -0.923880 -0.146447
v -0.250000 -0.923880 0.167045
v 0.980785 0.000000 -0.195090
v 0.961940 -0.195090 -0.191342
v 0.906127 -0.382683 -0.180240
v 0.815493 -0.555570 -0.162212
v 0.693520 -0.707107 -0.137950
v 0.544895 -0.831470 -0.108386
v 0.375330 -0.923880 -0.074658
v -0.172203 -0.923880 0.115062
v 1.000000 0.000000 0.000000
v 0.980785 -0.195090 0.000000
v 0.923879 -0.382683 -0.000000
v 0.831469 -0.555570 0.000000
v 0.707107 -0.707107 -0.000000
v 0.555570 -0.831470 0.000000
v 0.382683 -0.923880 0.000000
v -0.087788 -0.923880 0.058658
v 0.980785 0.000000 0.195090
v 0.961940 -0.195090 0.191342
v 0.906127 -0.382683 0.180240
v 0.815493 -0.555570 0.162212
v 0.693520 -0.707107 0.137950
v 0.544895 -0.831470 0.108386
v 0.375330 -0.923880 0.074658
v 0.000000 -0.923880 0.000000
v 0.923879 0.000000 0.382683
v 0.906127 -0.195090 0.375330
v 0.853553 -0.382683 0.353553
v 0.768178 -0.555570 0.318190
v 0.653281 -0.707107 0.270598
v 0.513280 -0.831470 0.212608
v 0.353553 -0.923880 0.146447
v 0.087788 -0.923880 -0.058658
v 0.831469 0.000000 0.555570
v 0.815493 -0.195090 0.544895
v 0.768178 -0.382683 0.513280
v 0.691341 -0.555570 0.461940
v 0.587938 -0.707107 0.392847
v 0.461940 -0.831470 0.308658
v 0.318190 -0.923880 0.212608
v 0.172203 -0.923879 -0.115062
v 0.707106 0.000000 0.707107
v 0.693520 -0.195090 0.693520
v 0.653281 -0.382683 0.653281
v 0.587938 -0.555570 0.587938
v 0.500000 -0.707107 0.500000
v 0.392847 -0.831470 0.392847
v 0.270598 -0.923880 0.270598
v 0.250000 -0.923880 -0.167044
v 0.555570 0.000000 0.831469
v 0.544895 -0.195090 0.815493
v 0.513280 -0.382683 0.768178
v 0.461940 -0.555570 0.691342
v 0.392847 -0.707107 0.587938
v 0.308658 -0.831470 0.461940
v 0.212607 -0.923880 0.318190
v -0.194550 -0.923880 0.239632
v 0.382683 0.000000 0.923879
v 0.375330 -0.195090 0.906127
v 0.353553 -0.382683 0.853553
v 0.318189 -0.555570 0.768178
v 0.270598 -0.707107 0.653281
v 0.212607 -0.831470 0.513280
v 0.146447 -0.923880 0.353553
v -0.111435 -0.923879 0.198845
v 0.195090 0.000000 0.980785
v 0.191342 -0.195090 0.961939
v 0.180240 -0.382683 0.906127
v 0.162212 -0.555570 0.815493
v 0.137950 -0.707107 0.693520
v 0.108386 -0.831470 0.544895
v 0.074658 -0.923880 0.375330
v -0.024447 -0.923880 0.149803
v -0.000000 0.000000 0.999999
v -0.000000 -0.195090 0.980785
v 0.000000 -0.382683 0.923879
v -0.000000 -0.555570 0.831469
v -0.000000 -0.707107 0.707107
v -0.000000 -0.831470 0.555570
v -0.000000 -0.923880 0.382683
v 0.063071 -0.923880 0.094392
v -0.195091 0.000000 0.980785
v -0.191342 -0.195090 0.961939
v -0.180240 -0.382683 0.906127
v -0.162212 -0.555570 0.815493
v -0.137950 -0.707107 0.693520
v -0.108386 -0.831470 0.544895
v -0.074658 -0.923880 0.375330
v 0.147756 -0.923880 0.034741
v -0.382683 0.000000 0.923879
v -0.375330 -0.195090 0.906127
v -0.353553 -0.382683 0.853553
v -0.318190 -0.555570 0.768177
v -0.270598 -0.707107 0.653281
v -0.212608 -0.831470 0.513280
v -0.146447 -0.923880 0.353553
v 0.226353 -0.923879 -0.026858
v -0.555570 0.000000 0.831469
v -0.544895 -0.195090 0.815493
v -0.513280 -0.382683 0.768178
v -0.461940 -0.555570 0.691341
v -0.392847 -0.707107 0.587938
v -0.308658 -0.831470 0.461939
v -0.212608 -0.923880 0.318190
v 0.295842 -0.923879 -0.088037
v -0.707106 0.000000 0.707106
v -0.693520 -0.195090 0.693520
v -0.653281 -0.382683 0.653281
v -0.587938 -0.555570 0.587937
v -0.500000 -0.707107 0.500000
v -0.392847 -0.831470 0.392847
v -0.270598 -0.923880 0.270598
v -0.132335 -0.923880 0.301946
v -0.047625 -0.923880 0.273130
v -0.831469 0.000000 0.555569
v -0.815493 -0.195090 0.544895
v -0.768177 -0.382683 0.513280
v -0.691341 -0.555570 0.461939
v -0.587938 -0.707107 0.392847
v -0.461940 -0.831470 0.308658
v -0.318190 -0.923880 0.212607
v 0.038267 -0.923880 0.232848
v -0.923879 0.000000 0.382683
v -0.906127 -0.195090 0.375330
v -0.853553 -0.382683 0.353553
v -0.768177 -0.555570 0.318189
v -0.653281 -0.707107 0.270598
v -0.513280 -0.831470 0.212607
v -0.353553 -0.923880 0.146447
v 0.122042 -0.923880 0.182649
v -0.980784 0.000000 0.195090
v -0.961939 -0.195090 0.191341
v -0.906127 -0.382683 0.180240
v -0.815493 -0.555570 0.162211
v -0.693520 -0.707107 0.137950
v -0.544895 -0.831470 0.108386
v -0.375330 -0.923880 0.074658
v 0.200479 -0.923880 0.124462
v -0.999999 0.000000 -0.000000
v -0.980785 -0.195090 -0.000000
v -0.923879 -0.382683 -0.000000
v -0.831469 -0.555570 -0.000000
v -0.707107 -0.707107 -0.000000
v -0.555570 -0.831470 -0.000000
v -0.382683 -0.923880 -0.000000
v 0.270564 -0.923879 0.060522
v -0.980784 0.000000 -0.195091
v -0.961939 -0.195090 -0.191342
v -0.906127 -0.382683 -0.180240
v -0.815493 -0.555570 -0.162212
v -0.693520 -0.707107 -0.137950
v -0.544895 -0.831470 -0.108386
v -0.375330 -0.923880 -0.074658
v 0.329604 -0.923880 -0.006712
v -0.923878 0.000000 -0.382683
v -0.906127 -0.195090 -0.375330
v -0.853553 -0.382683 -0.353553
v -0.768177 -0.555570 -0.318190
v -0.653281 -0.707107 -0.270598
v -0.513279 -0.831470 -0.212607
v -0.353553 -0.923880 -0.146447
v -0.066431 -0.923880 0.350567
v -0.831468 0.000000 -0.555570
v -0.815493 -0.195090 -0.544895
v -0.768177 -0.382683 -0.513280
v -0.691341 -0.555570 -0.461940
v -0.587938 -0.707107 -0.392847
v -0.461939 -0.831470 -0.308658
v -0.318189 -0.923880 -0.212607
v 0.015582 -0.923879 0.333277
v -0.707106 0.000000 -0.707106
v -0.693519 -0.195090 -0.693520
v -0.653281 -0.382683 -0.653281
v -0.587937 -0.555570 -0.587938
v -0.500000 -0.707107 -0.500000
v -0.392847 -0.831470 -0.392847
v -0.270598 -0.923880 -0.270598
v 0.096440 -0.923880 0.302347
v -0.555569 0.000000 -0.831469
v -0.544895 -0.195090 -0.815493
v -0.513280 -0.382683 -0.768177
v -0.461939 -0.555570 -0.691341
v -0.392847 -0.707107 -0.587938
v -0.308658 -0.831470 -0.461939
v -0.212607 -0.923880 -0.318190
v 0.173036 -0.923880 0.258966
v -0.349304 -0.923880 -0.072782
v -0.301945 -0.923880 -0.141935
v -0.242426 -0.923880 -0.204802
v -0.173036 -0.923880 -0.258966
v -0.096440 -0.923880 -0.302347
v -0.382683 0.000000 -0.923879
v -0.375330 -0.195090 -0.906127
v -0.353553 -0.382683 -0.853553
v -0.318189 -0.555570 -0.768177
v -0.270598 -0.707107 -0.653281
v -0.212607 -0.831470 -0.513279
v -0.146446 -0.923880 -0.353553
v 0.242426 -0.923880 0.204802
v -0.015582 -0.923880 -0.333277
v 0.066431 -0.923880 -0.350567
v -0.329604 -0.923880 0.006712
v -0.270564 -0.923879 -0.060522
v -0.200479 -0.923880 -0.124462
v -0.122042 -0.923880 -0.182649
v -0.038267 -0.923880 -0.232848
v -0.195090 0.000000 -0.980784
v -0.191341 -0.195090 -0.961939
v -0.180240 -0.382683 -0.906127
v -0.162211 -0.555570 -0.815493
v -0.137950 -0.707107 -0.693520
v -0.108386 -0.831470 -0.544895
v -0.074658 -0.923880 -0.375330
v 0.301945 -0.923879 0.141935
v 0.047625 -0.923879 -0.273130
v 0.132335 -0.923879 -0.301946
v -0.295842 -0.923880 0.088038
v -0.226353 -0.923880 0.026858
v 0.000000 -0.382683 -0.923879
v 0.000000 -0.707107 -0.707107
v 0.000000 -0.831470 -0.555570
v 0.000000 -0.923880 -0.382683
v 0.349304 -0.923879 0.072782
v -0.295623 -0.824373 0.197529
v -0.250000 -0.823879 0.167045
v -0.295842 -0.823879 0.088038
v -0.328479 -0.824373 0.136060
v 0.000000 -0.175490 -0.881759
v 0.172023 -0.175490 -0.864816
v 0.175582 0.009849 -0.882711
v 0.000000 0.009849 -0.900005
v 0.000000 -0.344249 -0.830590
v 0.162040 -0.344249 -0.814631
v 0.000000 -0.499801 -0.747479
v 0.145826 -0.499801 -0.733117
v 0.000000 -0.636164 -0.635599
v 0.123999 -0.636164 -0.623386
v 0.000000 -0.748080 -0.499231
v 0.097395 -0.748080 -0.489639
v 0.000000 -0.824373 -0.355543
v 0.069363 -0.824373 -0.348711
v -0.348711 -0.824373 0.069363
v -0.329604 -0.823879 0.006712
v -0.349304 -0.823879 -0.072782
v -0.355543 -0.824373 -0.000000
v 0.136060 -0.824373 -0.328479
v 0.191048 -0.748080 -0.461230
v -0.328479 -0.824373 -0.136060
v -0.348711 -0.824373 -0.069363
v 0.337435 -0.175490 -0.814639
v 0.344417 0.009849 -0.831496
v 0.317853 -0.344249 -0.767365
v 0.286048 -0.499801 -0.690581
v 0.243233 -0.636164 -0.587217
v 0.415277 -0.499801 -0.621506
v 0.461451 -0.344249 -0.690611
v 0.353120 -0.636164 -0.528481
v 0.277358 -0.748080 -0.415096
v 0.197529 -0.824373 -0.295623
v -0.251407 -0.824373 0.251407
v -0.194550 -0.823879 0.239632
v -0.197529 -0.824373 0.295623
v -0.132335 -0.823879 0.301946
v 0.489879 -0.175490 -0.733156
v 0.500016 0.009849 -0.748326
v -0.136060 -0.824373 0.328479
v -0.066431 -0.823879 0.350567
v -0.069363 -0.824373 0.348711
v -0.000000 -0.824373 0.355543
v 0.623498 -0.175490 -0.623498
v 0.636399 0.009849 -0.636399
v 0.587316 -0.344249 -0.587316
v 0.528548 -0.499801 -0.528548
v 0.449437 -0.636164 -0.449437
v 0.353010 -0.748080 -0.353010
v 0.251407 -0.824373 -0.251407
v 0.528481 -0.636164 -0.353120
v 0.621506 -0.499801 -0.415277
v 0.415096 -0.748080 -0.277358
v 0.295623 -0.824373 -0.197529
v -0.301945 -0.823879 -0.141935
v -0.295623 -0.824373 -0.197529
v -0.270564 -0.823879 -0.060522
v 0.733156 -0.175490 -0.489879
v 0.748326 0.009849 -0.500016
v 0.690611 -0.344249 -0.461451
v -0.172203 -0.823879 0.115062
v -0.226353 -0.823879 0.026858
v 0.814639 -0.175490 -0.337434
v 0.831496 0.009849 -0.344417
v 0.767365 -0.344249 -0.317853
v 0.690581 -0.499801 -0.286048
v 0.587217 -0.636164 -0.243233
v 0.461230 -0.748080 -0.191048
v 0.328479 -0.824373 -0.136060
v 0.623386 -0.636164 -0.123999
v 0.733116 -0.499801 -0.145826
v 0.489639 -0.748080 -0.097395
v 0.348711 -0.824373 -0.069363
v -0.111435 -0.823879 0.198845
v -0.047625 -0.823879 0.273130
v 0.864816 -0.175490 -0.172023
v 0.882711 0.009849 -0.175582
v 0.814631 -0.344249 -0.162040
v 0.069363 -0.824373 0.348711
v 0.015582 -0.823879 0.333277
v 0.881759 -0.175490 0.000000
v 0.900004 0.009849 0.000000
v 0.830590 -0.344249 -0.000000
v 0.747479 -0.499801 0.000000
v 0.635599 -0.636164 -0.000000
v 0.499231 -0.748080 0.000000
v 0.355543 -0.824373 0.000000
v 0.489639 -0.748080 0.097395
v 0.623386 -0.636164 0.123999
v 0.348711 -0.824373 0.069363
v -0.242426 -0.823879 -0.204802
v -0.251407 -0.824373 -0.251407
v -0.200479 -0.823879 -0.124461
v 0.864816 -0.175490 0.172023
v 0.882711 0.009849 0.175582
v 0.814631 -0.344249 0.162040
v 0.733116 -0.499801 0.145826
v 0.814639 -0.175490 0.337435
v 0.831495 0.009849 0.344417
v 0.767365 -0.344249 0.317853
v 0.690581 -0.499801 0.286048
v 0.587217 -0.636164 0.243233
v 0.461230 -0.748080 0.191048
v 0.328479 -0.824373 0.136060
v -0.147756 -0.823880 -0.034741
v -0.087788 -0.823880 0.058658
v 0.415096 -0.748080 0.277358
v 0.528481 -0.636164 0.353120
v 0.295623 -0.824373 0.197529
v -0.024447 -0.823880 0.149803
v 0.038267 -0.823880 0.232848
v 0.733156 -0.175490 0.489879
v 0.748326 0.009849 0.500016
v 0.690611 -0.344249 0.461451
v 0.621506 -0.499801 0.415277
v 0.587316 -0.344249 0.587316
v 0.623498 -0.175490 0.623498
v 0.528547 -0.499801 0.528547
v 0.449436 -0.636164 0.449436
v 0.353010 -0.748080 0.353010
v 0.251407 -0.824373 0.251407
v 0.096440 -0.823880 0.302347
v 0.136060 -0.824373 0.328479
v 0.636399 0.009849 0.636399
v 0.197529 -0.824373 0.295623
v 0.277358 -0.748080 0.415096
v -0.173036 -0.823879 -0.258966
v -0.197529 -0.824373 -0.295623
v -0.122042 -0.823879 -0.182649
v 0.489879 -0.175490 0.733156
v 0.500015 0.009849 0.748326
v 0.461451 -0.344249 0.690610
v 0.415277 -0.499801 0.621506
v 0.353120 -0.636164 0.528481
v 0.286048 -0.499801 0.690581
v 0.317853 -0.344249 0.767365
v 0.243233 -0.636164 0.587217
v 0.191047 -0.748080 0.461230
v -0.063071 -0.823879 -0.094392
v 0.000000 -0.823879 0.000000
v 0.337434 -0.175490 0.814639
v 0.344416 0.009849 0.831495
v 0.063071 -0.823879 0.094392
v 0.122042 -0.823879 0.182649
v 0.172022 -0.175490 0.864816
v 0.175582 0.009849 0.882711
v 0.162040 -0.344249 0.814631
v 0.145826 -0.499801 0.733116
v 0.123999 -0.636164 0.623386
v 0.097395 -0.748080 0.489639
v -0.000000 -0.499801 0.747479
v 0.000000 -0.344249 0.830590
v -0.000000 -0.636164 0.635599
v -0.000000 -0.748080 0.499231
v 0.173036 -0.823880 0.258966
v -0.000000 -0.175490 0.881759
v -0.000000 0.009849 0.900004
v -0.096440 -0.823879 -0.302347
v -0.136060 -0.824373 -0.328479
v -0.038267 -0.823879 -0.232848
v -0.172023 -0.175490 0.864816
v -0.175582 0.009849 0.882711
v -0.162040 -0.344249 0.814631
v -0.145826 -0.499801 0.733116
v -0.123999 -0.636164 0.623386
v -0.097395 -0.748080 0.489639
v -0.243233 -0.636164 0.587217
v -0.286048 -0.499801 0.690580
v -0.191048 -0.748080 0.461229
v 0.024447 -0.823879 -0.149803
v 0.087788 -0.823879 -0.058658
v -0.337435 -0.175490 0.814639
v -0.344417 0.009849 0.831495
v -0.317853 -0.344249 0.767365
v 0.200479 -0.823879 0.124462
v 0.147756 -0.823879 0.034741
v -0.489879 -0.175490 0.733155
v -0.500016 0.009848 0.748326
v -0.461451 -0.344249 0.690610
v -0.415277 -0.499801 0.621506
v -0.353120 -0.636164 0.528481
v -0.277358 -0.748080 0.415096
v -0.449436 -0.636164 0.449436
v -0.528547 -0.499801 0.528547
v -0.353010 -0.748080 0.353010
v 0.242426 -0.823880 0.204802
v -0.623498 -0.175490 0.623497
v -0.636399 0.009848 0.636399
v -0.587316 -0.344249 0.587316
v 0.047625 -0.823879 -0.273130
v -0.015582 -0.823879 -0.333277
v -0.733156 -0.175490 0.489879
v -0.748326 0.009848 0.500015
v -0.690610 -0.344249 0.461451
v -0.621506 -0.499801 0.415277
v -0.528481 -0.636164 0.353120
v -0.415096 -0.748080 0.277358
v -0.069363 -0.824373 -0.348711
v -0.461229 -0.748080 0.191047
v -0.587217 -0.636164 0.243233
v 0.270564 -0.823879 0.060522
v 0.329604 -0.823879 -0.006712
v 0.295843 -0.823879 -0.088038
v 0.226353 -0.823879 -0.026858
v 0.172203 -0.823879 -0.115062
v 0.111435 -0.823879 -0.198845
v -0.814639 -0.175490 0.337434
v -0.831495 0.009848 0.344416
v -0.767365 -0.344249 0.317853
v -0.690580 -0.499801 0.286048
v -0.814630 -0.344249 0.162040
v -0.864816 -0.175490 0.172022
v -0.733116 -0.499801 0.145826
v -0.623386 -0.636164 0.123999
v -0.489639 -0.748080 0.097395
v 0.301945 -0.823879 0.141935
v 0.349304 -0.823879 0.072782
v -0.882710 0.009848 0.175582
v -0.499231 -0.748080 -0.000000
v -0.881759 -0.175490 -0.000000
v -0.900004 0.009848 -0.000000
v -0.830590 -0.344249 0.000000
v -0.747479 -0.499801 -0.000000
v -0.635599 -0.636164 -0.000000
v -0.814630 -0.344249 -0.162040
v -0.864816 -0.175490 -0.172023
v -0.733116 -0.499801 -0.145826
v -0.623386 -0.636164 -0.123999
v -0.489639 -0.748080 -0.097395
v 0.066431 -0.823879 -0.350567
v -0.882710 0.009848 -0.175582
v -0.461229 -0.748080 -0.191048
v 0.132336 -0.823879 -0.301946
v -0.814639 -0.175490 -0.337435
v -0.831495 0.009848 -0.344417
v -0.767365 -0.344249 -0.317853
v -0.690580 -0.499801 -0.286048
v -0.587217 -0.636164 -0.243233
v -0.621506 -0.499801 -0.415277
v -0.690610 -0.344249 -0.461451
v -0.528481 -0.636164 -0.353120
v -0.415095 -0.748080 -0.277358
v 0.194550 -0.823879 -0.239632
v -0.733155 -0.175490 -0.489879
v -0.748325 0.009848 -0.500016
v 0.250000 -0.823879 -0.167045
v -0.623497 -0.175490 -0.623498
v -0.636398 0.009848 -0.636399
v -0.587316 -0.344249 -0.587316
v -0.528547 -0.499801 -0.528547
v -0.449436 -0.636164 -0.449436
v -0.353010 -0.748080 -0.353010
v -0.415277 -0.499801 -0.621506
v -0.461451 -0.344249 -0.690610
v -0.353120 -0.636164 -0.528481
v -0.277358 -0.748080 -0.415096
v -0.489879 -0.175490 -0.733155
v -0.500015 0.009848 -0.748326
v -0.337434 -0.175490 -0.814639
v -0.344416 0.009848 -0.831495
v -0.317853 -0.344249 -0.767365
v -0.286047 -0.499801 -0.690580
v -0.243233 -0.636164 -0.587217
v -0.191047 -0.748080 -0.461229
v -0.123999 -0.636164 -0.623386
v -0.145826 -0.499801 -0.733116
v -0.097395 -0.748080 -0.489638
v -0.172022 -0.175490 -0.864816
v -0.175581 0.009848 -0.882710
v -0.162040 -0.344249 -0.814630
vn -0.0000 -1.0000 -0.0000
vn 0.0975 -0.0975 -0.9904
vn 0.0938 -0.2890 -0.9527
vn 0.0865 -0.4696 -0.8786
vn 0.0759 -0.6326 -0.7708
vn 0.0624 -0.7715 -0.6332
vn 0.0464 -0.8810 -0.4709
vn 0.1374 -0.8810 -0.4528
vn 0.2889 -0.0976 -0.9524
vn 0.2779 -0.2890 -0.9161
vn 0.2563 -0.4696 -0.8448
vn 0.2248 -0.6326 -0.7412
vn 0.1847 -0.7715 -0.6088
vn 0.4162 -0.4696 -0.7786
vn 0.3651 -0.6326 -0.6831
vn 0.2999 -0.7715 -0.5611
vn 0.2230 -0.8810 -0.4173
vn 0.4691 -0.0975 -0.8777
vn 0.4513 -0.2890 -0.8443
vn 0.6314 -0.0975 -0.7693
vn 0.6073 -0.2890 -0.7400
vn 0.5601 -0.4696 -0.6825
vn 0.4913 -0.6326 -0.5987
vn 0.4036 -0.7715 -0.4918
vn 0.3002 -0.8810 -0.3658
vn 0.5987 -0.6326 -0.4913
vn 0.4918 -0.7715 -0.4036
vn 0.3658 -0.8810 -0.3002
vn 0.7693 -0.0975 -0.6314
vn 0.7400 -0.2890 -0.6073
vn 0.6825 -0.4696 -0.5601
vn 0.8777 -0.0975 -0.4691
vn 0.8443 -0.2890 -0.4513
vn 0.7786 -0.4696 -0.4162
vn 0.6831 -0.6326 -0.3651
vn 0.5611 -0.7715 -0.2999
vn 0.4173 -0.8810 -0.2230
vn 0.7412 -0.6326 -0.2248
vn 0.6088 -0.7715 -0.1847
vn 0.4528 -0.8810 -0.1374
vn 0.9524 -0.0975 -0.2889
vn 0.9161 -0.2890 -0.2779
vn 0.8448 -0.4696 -0.2563
vn 0.9904 -0.0975 -0.0975
vn 0.9527 -0.2890 -0.0938
vn 0.8786 -0.4696 -0.0865
vn 0.7708 -0.6326 -0.0759
vn 0.6332 -0.7715 -0.0624
vn 0.4709 -0.8810 -0.0464
vn 0.6332 -0.7715 0.0624
vn 0.4709 -0.8810 0.0464
vn 0.9904 -0.0975 0.0976
vn 0.9527 -0.2890 0.0938
vn 0.8786 -0.4696 0.0865
vn 0.7708 -0.6326 0.0759
vn 0.9524 -0.0975 0.2889
vn 0.9161 -0.2890 0.2779
vn 0.8448 -0.4696 0.2563
vn 0.7412 -0.6326 0.2248
vn 0.6088 -0.7715 0.1847
vn 0.4528 -0.8810 0.1374
vn 0.5611 -0.7715 0.2999
vn 0.4173 -0.8810 0.2230
vn 0.8777 -0.0975 0.4691
vn 0.8443 -0.2890 0.4513
vn 0.7786 -0.4696 0.4162
vn 0.6831 -0.6326 0.3651
vn 0.7400 -0.2890 0.6073
vn 0.6825 -0.4696 0.5601
vn 0.5987 -0.6326 0.4913
vn 0.4918 -0.7715 0.4036
vn 0.3658 -0.8810 0.3002
vn 0.7693 -0.0975 0.6314
vn 0.3002 -0.8810 0.3658
vn 0.6314 -0.0975 0.7693
vn 0.6073 -0.2890 0.7400
vn 0.5601 -0.4696 0.6825
vn 0.4913 -0.6326 0.5987
vn 0.4036 -0.7715 0.4918
vn 0.4162 -0.4696 0.7786
vn 0.3651 -0.6326 0.6831
vn 0.2999 -0.7715 0.5611
vn 0.2230 -0.8810 0.4173
vn 0.4691 -0.0975 0.8777
vn 0.4513 -0.2890 0.8443
vn 0.2889 -0.0975 0.9524
vn 0.2779 -0.2890 0.9161
vn 0.2563 -0.4696 0.8448
vn 0.2248 -0.6326 0.7412
vn 0.1847 -0.7715 0.6088
vn 0.1374 -0.8810 0.4528
vn 0.0865 -0.4696 0.8786
vn 0.0759 -0.6326 0.7708
vn 0.0624 -0.7715 0.6332
vn 0.0464 -0.8810 0.4709
vn 0.0975 -0.0975 0.9904
vn 0.0938 -0.2890 0.9527
vn -0.0976 -0.0975 0.9904
vn -0.0938 -0.2890 0.9527
vn -0.0865 -0.4696 0.8786
vn -0.0759 -0.6326 0.7708
vn -0.0624 -0.7715 0.6332
vn -0.0464 -0.8810 0.4709
vn -0.2248 -0.6326 0.7412
vn -0.1847 -0.7715 0.6088
vn -0.1374 -0.8810 0.4528
vn -0.2889 -0.0975 0.9524
vn -0.2779 -0.2890 0.9161
vn -0.2563 -0.4696 0.8448
vn -0.4691 -0.0975 0.8777
vn -0.4513 -0.2890 0.8443
vn -0.4162 -0.4696 0.7786
vn -0.3651 -0.6326 0.6831
vn -0.2999 -0.7715 0.5611
vn -0.2230 -0.8810 0.4173
vn -0.4913 -0.6326 0.5987
vn -0.4036 -0.7715 0.4918
vn -0.3002 -0.8810 0.3658
vn -0.6314 -0.0975 0.7693
vn -0.6073 -0.2890 0.7400
vn -0.5601 -0.4696 0.6825
vn -0.7693 -0.0975 0.6314
vn -0.7400 -0.2890 0.6073
vn -0.6825 -0.4696 0.5601
vn -0.5987 -0.6326 0.4913
vn -0.4918 -0.7715 0.4036
vn -0.3658 -0.8810 0.3002
vn -0.5611 -0.7715 0.2999
vn -0.4173 -0.8810 0.2230
vn -0.8777 -0.0975 0.4691
vn -0.8443 -0.2890 0.4513
vn -0.7786 -0.4696 0.4162
vn -0.6831 -0.6326 0.3651
vn -0.9161 -0.2890 0.2779
vn -0.8448 -0.4696 0.2563
vn -0.7412 -0.6326 0.2248
vn -0.6088 -0.7715 0.1847
vn -0.4528 -0.8810 0.1374
vn -0.9524 -0.0975 0.2889
vn -0.4709 -0.8810 0.0464
vn -0.9904 -0.0975 0.0975
vn -0.9527 -0.2890 0.0938
vn -0.8786 -0.4696 0.0865
vn -0.7708 -0.6326 0.0759
vn -0.6332 -0.7715 0.0624
vn -0.9527 -0.2890 -0.0938
vn -0.8786 -0.4696 -0.0865
vn -0.7708 -0.6326 -0.0759
vn -0.6332 -0.7715 -0.0624
vn -0.4709 -0.8810 -0.0464
vn -0.9904 -0.0975 -0.0976
vn -0.4528 -0.8810 -0.1374
vn -0.9524 -0.0975 -0.2889
vn -0.9161 -0.2890 -0.2779
vn -0.8448 -0.4696 -0.2563
vn -0.7412 -0.6326 -0.2248
vn -0.6088 -0.7715 -0.1847
vn -0.7786 -0.4696 -0.4162
vn -0.6831 -0.6326 -0.3651
vn -0.5611 -0.7715 -0.2999
vn -0.4173 -0.8810 -0.2231
vn -0.8777 -0.0975 -0.4691
vn -0.8443 -0.2890 -0.4513
vn -0.7693 -0.0975 -0.6314
vn -0.7400 -0.2890 -0.6073
vn -0.6825 -0.4696 -0.5601
vn -0.5987 -0.6326 -0.4913
vn -0.4918 -0.7715 -0.4036
vn -0.3658 -0.8810 -0.3002
vn -0.5601 -0.4696 -0.6825
vn -0.4913 -0.6326 -0.5987
vn -0.4036 -0.7715 -0.4918
vn -0.3002 -0.8810 -0.3658
vn -0.6314 -0.0975 -0.7693
vn -0.6073 -0.2890 -0.7400
vn -0.4691 -0.0975 -0.8777
vn -0.4513 -0.2890 -0.8443
vn -0.4162 -0.4696 -0.7786
vn -0.3651 -0.6326 -0.6831
vn -0.2999 -0.7715 -0.5611
vn -0.2230 -0.8810 -0.4173
vn -0.2248 -0.6326 -0.7412
vn -0.1847 -0.7715 -0.6088
vn -0.1374 -0.8810 -0.4528
vn -0.2889 -0.0975 -0.9524
vn -0.2779 -0.2890 -0.9161
vn -0.2563 -0.4696 -0.8448
vn -0.0976 -0.0975 -0.9904
vn -0.0938 -0.2890 -0.9527
vn -0.0865 -0.4696 -0.8786
vn -0.0759 -0.6326 -0.7708
vn -0.0624 -0.7715 -0.6332
vn -0.0464 -0.8810 -0.4709
vn -0.0081 1.0000 0.0045
vn -0.0976 0.0975 0.9904
vn -0.0938 0.2889 0.9528
vn -0.0865 0.4695 0.8787
vn -0.0759 0.6325 0.7709
vn -0.0624 0.7715 0.6332
vn -0.0461 0.8823 0.4685
vn -0.0199 0.9998 0.0036
vn -0.1366 0.8823 0.4505
vn -0.3606 -0.9299 -0.0717
vn -0.0107 0.9999 0.0039
vn -0.2889 0.0975 0.9524
vn -0.2779 0.2889 0.9161
vn -0.2563 0.4695 0.8449
vn -0.2249 0.6325 0.7412
vn -0.1847 0.7715 0.6088
vn -0.4162 0.4695 0.7787
vn -0.3651 0.6325 0.6831
vn -0.2999 0.7715 0.5611
vn -0.2219 0.8823 0.4151
vn -0.0073 1.0000 0.0057
vn -0.0077 0.9999 0.0084
vn -0.4692 0.0975 0.8777
vn -0.4513 0.2889 0.8443
vn -0.0109 0.9998 0.0171
vn -0.0717 -0.9299 0.3606
vn -0.6314 0.0975 0.7693
vn -0.6073 0.2889 0.7401
vn -0.5601 0.4695 0.6825
vn -0.4914 0.6325 0.5988
vn -0.4036 0.7715 0.4918
vn -0.2986 0.8823 0.3639
vn -0.5988 0.6325 0.4914
vn -0.4918 0.7715 0.4036
vn -0.3639 0.8823 0.2986
vn -0.0215 0.9997 -0.0132
vn -0.0000 1.0000 -0.0000
vn -0.7693 0.0975 0.6314
vn -0.7401 0.2889 0.6073
vn -0.6825 0.4695 0.5601
vn -0.8777 0.0975 0.4692
vn -0.8443 0.2889 0.4513
vn -0.7787 0.4695 0.4162
vn -0.6831 0.6325 0.3651
vn -0.5611 0.7715 0.2999
vn -0.4151 0.8823 0.2219
vn -0.7412 0.6325 0.2249
vn -0.6088 0.7715 0.1847
vn -0.4505 0.8823 0.1366
vn -0.9524 0.0975 0.2889
vn -0.9161 0.2889 0.2779
vn -0.8449 0.4695 0.2563
vn 0.0040 0.9997 0.0249
vn -0.9904 0.0975 0.0975
vn -0.9528 0.2889 0.0938
vn -0.8787 0.4695 0.0865
vn -0.7709 0.6325 0.0759
vn -0.6332 0.7715 0.0624
vn -0.4685 0.8823 0.0461
vn -0.6332 0.7715 -0.0624
vn -0.4685 0.8823 -0.0461
vn -0.0106 0.9999 -0.0094
vn -0.9904 0.0975 -0.0976
vn -0.9528 0.2889 -0.0938
vn -0.8787 0.4695 -0.0865
vn -0.7709 0.6325 -0.0759
vn -0.9524 0.0975 -0.2889
vn -0.9161 0.2889 -0.2779
vn -0.8449 0.4695 -0.2563
vn -0.7412 0.6325 -0.2249
vn -0.6088 0.7715 -0.1847
vn -0.4505 0.8823 -0.1366
vn -0.5611 0.7715 -0.2999
vn -0.4151 0.8823 -0.2219
vn -0.8777 0.0975 -0.4692
vn -0.8443 0.2889 -0.4513
vn -0.7787 0.4695 -0.4162
vn -0.6831 0.6325 -0.3651
vn -0.7401 0.2889 -0.6073
vn -0.6825 0.4695 -0.5601
vn -0.5988 0.6325 -0.4914
vn -0.4918 0.7715 -0.4036
vn -0.3639 0.8823 -0.2986
vn 0.0046 0.9999 0.0133
vn -0.7693 0.0975 -0.6314
vn -0.2986 0.8823 -0.3639
vn -0.0072 0.9999 -0.0090
vn -0.6314 0.0975 -0.7693
vn -0.6073 0.2889 -0.7401
vn -0.5601 0.4695 -0.6825
vn -0.4914 0.6325 -0.5988
vn -0.4036 0.7715 -0.4918
vn -0.4162 0.4695 -0.7787
vn -0.3651 0.6325 -0.6831
vn -0.2999 0.7715 -0.5611
vn -0.2219 0.8823 -0.4151
vn -0.4692 0.0975 -0.8777
vn -0.4513 0.2889 -0.8443
vn -0.2889 0.0975 -0.9524
vn -0.2779 0.2889 -0.9161
vn -0.2563 0.4695 -0.8449
vn -0.2249 0.6325 -0.7412
vn -0.1847 0.7715 -0.6088
vn -0.1366 0.8823 -0.4505
vn -0.0865 0.4695 -0.8787
vn -0.0759 0.6325 -0.7709
vn -0.0624 0.7715 -0.6332
vn -0.0461 0.8823 -0.4685
vn 0.0055 0.9999 0.0100
vn -0.0975 0.0975 -0.9904
vn -0.0938 0.2889 -0.9528
vn -0.0056 0.9999 -0.0101
vn 0.0976 0.0975 -0.9904
vn 0.0938 0.2889 -0.9528
vn 0.0865 0.4695 -0.8787
vn 0.0759 0.6325 -0.7709
vn 0.0624 0.7715 -0.6332
vn 0.0461 0.8823 -0.4685
vn 0.2249 0.6325 -0.7412
vn 0.1847 0.7715 -0.6088
vn 0.1366 0.8823 -0.4505
vn 0.2889 0.0975 -0.9524
vn 0.2779 0.2889 -0.9161
vn 0.2563 0.4695 -0.8449
vn 0.4692 0.0975 -0.8777
vn 0.4513 0.2889 -0.8443
vn 0.4162 0.4695 -0.7787
vn 0.3651 0.6325 -0.6831
vn 0.2999 0.7715 -0.5611
vn 0.2219 0.8823 -0.4151
vn 0.4914 0.6325 -0.5988
vn 0.4036 0.7715 -0.4918
vn 0.2986 0.8823 -0.3639
vn 0.0072 0.9999 0.0090
vn 0.6314 0.0975 -0.7693
vn 0.6073 0.2889 -0.7401
vn 0.5601 0.4695 -0.6825
vn 0.7693 0.0975 -0.6314
vn 0.7401 0.2889 -0.6073
vn 0.6825 0.4695 -0.5601
vn 0.5988 0.6325 -0.4914
vn 0.4918 0.7715 -0.4036
vn 0.3639 0.8823 -0.2986
vn -0.0046 0.9999 -0.0133
vn 0.5611 0.7715 -0.2999
vn 0.4151 0.8823 -0.2219
vn 0.8777 0.0975 -0.4692
vn 0.8443 0.2889 -0.4513
vn 0.7787 0.4695 -0.4162
vn 0.6831 0.6325 -0.3651
vn 0.9161 0.2889 -0.2779
vn 0.8449 0.4695 -0.2563
vn 0.7412 0.6325 -0.2249
vn 0.6088 0.7715 -0.1847
vn 0.4505 0.8823 -0.1366
vn 0.9524 0.0975 -0.2889
vn 0.4685 0.8823 -0.0461
vn 0.0215 0.9997 0.0132
vn 0.9904 0.0975 -0.0976
vn 0.9528 0.2889 -0.0938
vn 0.8787 0.4695 -0.0865
vn 0.7709 0.6325 -0.0759
vn 0.6332 0.7715 -0.0624
vn 0.9528 0.2889 0.0938
vn 0.8787 0.4695 0.0865
vn 0.7709 0.6325 0.0759
vn 0.6332 0.7715 0.0624
vn 0.4685 0.8823 0.0461
vn 0.0717 -0.9299 -0.3607
vn 0.9904 0.0975 0.0976
vn 0.4505 0.8823 0.1366
vn 0.0109 0.9998 -0.0171
vn 0.0106 0.9999 0.0094
vn 0.9524 0.0975 0.2889
vn 0.9161 0.2889 0.2779
vn 0.8449 0.4695 0.2563
vn 0.7412 0.6325 0.2249
vn 0.6088 0.7715 0.1847
vn 0.7787 0.4695 0.4162
vn 0.6831 0.6325 0.3651
vn 0.5611 0.7715 0.2999
vn 0.4151 0.8823 0.2219
vn 0.0077 0.9999 -0.0084
vn -0.0040 0.9997 -0.0249
vn 0.8777 0.0975 0.4692
vn 0.8443 0.2889 0.4513
vn 0.0073 1.0000 -0.0057
vn 0.7693 0.0975 0.6314
vn 0.7401 0.2889 0.6073
vn 0.6825 0.4695 0.5601
vn 0.5988 0.6325 0.4914
vn 0.4918 0.7715 0.4036
vn 0.3639 0.8823 0.2986
vn 0.5601 0.4695 0.6825
vn 0.4914 0.6325 0.5988
vn 0.4036 0.7715 0.4918
vn 0.2986 0.8823 0.3639
vn 0.0081 1.0000 -0.0045
vn 0.6314 0.0975 0.7693
vn 0.6073 0.2889 0.7401
vn 0.0107 0.9999 -0.0039
vn 0.4692 0.0975 0.8777
vn 0.4513 0.2889 0.8443
vn 0.4162 0.4695 0.7787
vn 0.3651 0.6325 0.6831
vn 0.2999 0.7715 0.5611
vn 0.2219 0.8823 0.4151
vn 0.2249 0.6325 0.7412
vn 0.1847 0.7715 0.6088
vn 0.1366 0.8823 0.4505
vn 0.0199 0.9998 -0.0036
vn 0.2889 0.0975 0.9524
vn 0.2779 0.2889 0.9161
vn 0.2563 0.4695 0.8449
vn 0.0976 0.0975 0.9904
vn 0.0938 0.2889 0.9528
vn 0.0865 0.4695 0.8787
vn 0.0759 0.6325 0.7709
vn 0.0624 0.7715 0.6332
vn 0.0461 0.8823 0.4685
vn 0.3606 -0.9299 0.0717
vn 0.0980 0.9951 0.0097
vn -0.0942 0.9951 -0.0286
vn 0.0286 0.9951 -0.0942
vn 0.0097 0.9951 -0.0980
vn -0.0286 0.9951 0.0942
vn -0.0761 0.9951 -0.0625
vn -0.0980 0.9951 -0.0097
vn 0.0869 0.9951 0.0464
vn 0.0625 0.9951 -0.0761
vn 0.0869 0.9951 -0.0464
vn -0.0761 0.9951 0.0625
vn -0.0869 0.9951 -0.0464
vn 0.0625 0.9951 0.0761
vn 0.0464 0.9951 -0.0869
vn -0.0625 0.9951 0.0761
vn 0.0286 0.9951 0.0942
vn -0.0464 0.9951 -0.0869
vn 0.0761 0.9951 0.0625
vn -0.0286 0.9951 -0.0942
vn 0.0761 0.9951 -0.0625
vn -0.0625 0.9951 -0.0761
vn -0.0869 0.9951 0.0464
vn 0.0980 0.9951 -0.0097
vn 0.0464 0.9951 0.0869
vn -0.0097 0.9951 -0.0980
vn -0.0980 0.9951 0.0097
vn -0.0097 0.9951 0.0980
vn 0.0942 0.9951 -0.0286
vn -0.0464 0.9951 0.0869
vn 0.0942 0.9951 0.0286
vn -0.0942 0.9951 0.0286
vn 0.0097 0.9951 0.0980
vt 0.093750 0.125000
vt 0.062500 0.125000
vt 0.306818 0.125000
vt 0.289402 0.125000
vt 0.750000 0.437500
vt 0.750000 0.500000
vt 0.718750 0.500000
vt 0.718750 0.437500
vt 0.750000 0.375000
vt 0.718750 0.375000
vt 0.750000 0.312500
vt 0.718750 0.312500
vt 0.750000 0.250000
vt 0.718750 0.250000
vt 0.750000 0.187500
vt 0.718750 0.187500
vt 0.750000 0.125000
vt 0.718750 0.125000
vt 0.031250 0.125000
vt 0.000000 0.125000
vt 0.468750 0.125000
vt 0.351151 0.125000
vt 0.687500 0.187500
vt 0.687500 0.125000
vt 1.000000 0.125000
vt 0.968750 0.125000
vt 0.937500 0.125000
vt 0.906250 0.125000
vt 0.687500 0.500000
vt 0.687500 0.437500
vt 0.687500 0.375000
vt 0.687500 0.312500
vt 0.687500 0.250000
vt 0.656250 0.375000
vt 0.656250 0.312500
vt 0.656250 0.250000
vt 0.656250 0.187500
vt 0.656250 0.125000
vt 0.125000 0.125000
vt 0.284091 0.125000
vt 0.156250 0.125000
vt 0.283717 0.125000
vt 0.656250 0.500000
vt 0.656250 0.437500
vt 0.187500 0.125000
vt 0.281250 0.125000
vt 0.218750 0.125000
vt 0.250000 0.125000
vt 0.625000 0.500000
vt 0.625000 0.437500
vt 0.625000 0.375000
vt 0.625000 0.312500
vt 0.625000 0.250000
vt 0.625000 0.187500
vt 0.625000 0.125000
vt 0.593750 0.312500
vt 0.593750 0.250000
vt 0.593750 0.187500
vt 0.593750 0.125000
vt 0.906250 0.125000
vt 0.862664 0.125000
vt 0.586349 0.125000
vt 0.468750 0.125000
vt 0.593750 0.500000
vt 0.593750 0.437500
vt 0.593750 0.375000
vt 0.411458 0.125000
vt 0.379464 0.125000
vt 0.562500 0.500000
vt 0.562500 0.437500
vt 0.562500 0.375000
vt 0.562500 0.312500
vt 0.562500 0.250000
vt 0.562500 0.187500
vt 0.562500 0.125000
vt 0.531250 0.312500
vt 0.531250 0.250000
vt 0.531250 0.187500
vt 0.531250 0.125000
vt 0.359375 0.125000
vt 0.343750 0.125000
vt 0.531250 0.500000
vt 0.531250 0.437500
vt 0.531250 0.375000
vt 0.324835 0.125000
vt 0.281250 0.125000
vt 0.500000 0.500000
vt 0.500000 0.437500
vt 0.500000 0.375000
vt 0.500000 0.312500
vt 0.500000 0.250000
vt 0.500000 0.187500
vt 0.500000 0.125000
vt 0.468750 0.250000
vt 0.468750 0.187500
vt 0.875000 0.125000
vt 0.829545 0.125000
vt 0.630682 0.125000
vt 0.526042 0.125000
vt 0.468750 0.500000
vt 0.468750 0.437500
vt 0.468750 0.375000
vt 0.468750 0.312500
vt 0.437500 0.500000
vt 0.437500 0.437500
vt 0.437500 0.375000
vt 0.437500 0.312500
vt 0.437500 0.250000
vt 0.437500 0.187500
vt 0.437500 0.125000
vt 0.432460 0.125000
vt 0.406250 0.250000
vt 0.406250 0.187500
vt 0.406250 0.125000
vt 0.383681 0.125000
vt 0.406250 0.500000
vt 0.406250 0.437500
vt 0.406250 0.375000
vt 0.406250 0.312500
vt 0.375000 0.437500
vt 0.375000 0.375000
vt 0.375000 0.312500
vt 0.375000 0.250000
vt 0.375000 0.187500
vt 0.375000 0.125000
vt 0.357955 0.125000
vt 0.312500 0.125000
vt 0.375000 0.500000
vt 0.343750 0.187500
vt 0.843750 0.125000
vt 0.800272 0.125000
vt 0.648098 0.125000
vt 0.558036 0.125000
vt 0.343750 0.500000
vt 0.343750 0.437500
vt 0.343750 0.375000
vt 0.343750 0.312500
vt 0.343750 0.250000
vt 0.312500 0.375000
vt 0.312500 0.312500
vt 0.312500 0.250000
vt 0.312500 0.187500
vt 0.505040 0.125000
vt 0.312500 0.500000
vt 0.312500 0.437500
vt 0.440524 0.125000
vt 0.415179 0.125000
vt 0.281250 0.500000
vt 0.281250 0.437500
vt 0.281250 0.375000
vt 0.281250 0.312500
vt 0.281250 0.250000
vt 0.281250 0.187500
vt 0.250000 0.375000
vt 0.250000 0.312500
vt 0.250000 0.250000
vt 0.250000 0.187500
vt 0.387228 0.125000
vt 0.250000 0.500000
vt 0.250000 0.437500
vt 0.812500 0.125000
vt 0.772727 0.125000
vt 0.653409 0.125000
vt 0.578125 0.125000
vt 0.218750 0.500000
vt 0.218750 0.437500
vt 0.218750 0.375000
vt 0.218750 0.312500
vt 0.218750 0.250000
vt 0.218750 0.187500
vt 0.187500 0.312500
vt 0.187500 0.250000
vt 0.187500 0.187500
vt 0.496976 0.125000
vt 0.187500 0.500000
vt 0.187500 0.437500
vt 0.187500 0.375000
vt 0.442708 0.125000
vt 0.156250 0.500000
vt 0.156250 0.437500
vt 0.156250 0.375000
vt 0.156250 0.312500
vt 0.156250 0.250000
vt 0.156250 0.187500
vt 0.125000 0.312500
vt 0.125000 0.250000
vt 0.125000 0.187500
vt 0.414773 0.125000
vt 0.125000 0.500000
vt 0.125000 0.437500
vt 0.125000 0.375000
vt 0.653783 0.125000
vt 0.593750 0.125000
vt 0.093750 0.500000
vt 0.093750 0.437500
vt 0.093750 0.375000
vt 0.093750 0.312500
vt 0.093750 0.250000
vt 0.093750 0.187500
vt 0.781250 0.125000
vt 0.745888 0.125000
vt 0.062500 0.250000
vt 0.062500 0.187500
vt 0.494792 0.125000
vt 0.522727 0.125000
vt 0.495888 0.125000
vt 0.553819 0.125000
vt 0.522321 0.125000
vt 0.062500 0.500000
vt 0.062500 0.437500
vt 0.062500 0.375000
vt 0.062500 0.312500
vt 0.031250 0.437500
vt 0.031250 0.375000
vt 0.031250 0.312500
vt 0.031250 0.250000
vt 0.031250 0.187500
vt 0.441612 0.125000
vt 0.031250 0.500000
vt 0.000000 0.187500
vt 0.000000 0.500000
vt 0.000000 0.437500
vt 0.000000 0.375000
vt 0.000000 0.312500
vt 0.000000 0.250000
vt 1.000000 0.375000
vt 1.000000 0.437500
vt 0.968750 0.437500
vt 0.968750 0.375000
vt 1.000000 0.312500
vt 0.968750 0.312500
vt 1.000000 0.250000
vt 0.968750 0.250000
vt 1.000000 0.187500
vt 0.968750 0.187500
vt 0.718750 0.125000
vt 1.000000 0.500000
vt 0.968750 0.500000
vt 0.937500 0.187500
vt 0.612664 0.125000
vt 0.656250 0.125000
vt 0.937500 0.500000
vt 0.937500 0.437500
vt 0.937500 0.375000
vt 0.937500 0.312500
vt 0.937500 0.250000
vt 0.906250 0.375000
vt 0.906250 0.312500
vt 0.906250 0.250000
vt 0.906250 0.187500
vt 0.579545 0.125000
vt 0.906250 0.500000
vt 0.906250 0.437500
vt 0.550272 0.125000
vt 0.875000 0.500000
vt 0.875000 0.437500
vt 0.875000 0.375000
vt 0.875000 0.312500
vt 0.875000 0.250000
vt 0.875000 0.187500
vt 0.843750 0.375000
vt 0.843750 0.312500
vt 0.843750 0.250000
vt 0.843750 0.187500
vt 0.843750 0.500000
vt 0.843750 0.437500
vt 0.812500 0.500000
vt 0.812500 0.437500
vt 0.812500 0.375000
vt 0.812500 0.312500
vt 0.812500 0.250000
vt 0.812500 0.187500
vt 0.781250 0.312500
vt 0.781250 0.250000
vt 0.781250 0.187500
vt 0.781250 0.500000
vt 0.781250 0.437500
vt 0.781250 0.375000
s 0
f 171/1/1 179/2/1 267/3/1 51/4/1
f 2/5/2 1/6/2 4/7/2 5/8/2
f 269/9/3 2/5/3 5/8/3 6/10/3
f 3/11/4 269/9/4 6/10/4 7/12/4
f 270/13/5 3/11/5 7/12/5 8/14/5
f 271/15/6 270/13/6 8/14/6 9/16/6
f 272/17/7 271/15/7 9/16/7 10/18/7
f 187/19/1 195/20/1 237/21/1 252/22/1
f 10/18/8 9/16/8 17/23/8 18/24/8
f 195/25/1 203/26/1 211/27/1 237/28/1
f 179/2/1 187/19/1 252/22/1 267/3/1
f 5/8/9 4/7/9 12/29/9 13/30/9
f 6/10/10 5/8/10 13/30/10 14/31/10
f 7/12/11 6/10/11 14/31/11 15/32/11
f 8/14/12 7/12/12 15/32/12 16/33/12
f 9/16/13 8/14/13 16/33/13 17/23/13
f 15/32/14 14/31/14 22/34/14 23/35/14
f 16/33/15 15/32/15 23/35/15 24/36/15
f 17/23/16 16/33/16 24/36/16 25/37/16
f 18/24/17 17/23/17 25/37/17 26/38/17
f 162/39/1 171/1/1 51/4/1 107/40/1
f 154/41/1 162/39/1 107/40/1 163/42/1
f 13/30/18 12/29/18 20/43/18 21/44/18
f 14/31/19 13/30/19 21/44/19 22/34/19
f 146/45/1 154/41/1 163/42/1 212/46/1
f 138/47/1 146/45/1 212/46/1 130/48/1
f 21/44/20 20/43/20 28/49/20 29/50/20
f 22/34/21 21/44/21 29/50/21 30/51/21
f 23/35/22 22/34/22 30/51/22 31/52/22
f 24/36/23 23/35/23 31/52/23 32/53/23
f 25/37/24 24/36/24 32/53/24 33/54/24
f 26/38/25 25/37/25 33/54/25 34/55/25
f 32/53/26 31/52/26 39/56/26 40/57/26
f 33/54/27 32/53/27 40/57/27 41/58/27
f 34/55/28 33/54/28 41/58/28 42/59/28
f 237/28/1 211/27/1 219/60/1 238/61/1
f 252/22/1 237/21/1 238/62/1 253/63/1
f 29/50/29 28/49/29 36/64/29 37/65/29
f 30/51/30 29/50/30 37/65/30 38/66/30
f 31/52/31 30/51/31 38/66/31 39/56/31
f 51/4/1 267/3/1 268/67/1 59/68/1
f 37/65/32 36/64/32 44/69/32 45/70/32
f 38/66/33 37/65/33 45/70/33 46/71/33
f 39/56/34 38/66/34 46/71/34 47/72/34
f 40/57/35 39/56/35 47/72/35 48/73/35
f 41/58/36 40/57/36 48/73/36 49/74/36
f 42/59/37 41/58/37 49/74/37 50/75/37
f 267/3/1 252/22/1 253/63/1 268/67/1
f 48/73/38 47/72/38 55/76/38 56/77/38
f 49/74/39 48/73/39 56/77/39 57/78/39
f 50/75/40 49/74/40 57/78/40 58/79/40
f 107/40/1 51/4/1 59/68/1 115/80/1
f 163/42/1 107/40/1 115/80/1 164/81/1
f 45/70/41 44/69/41 52/82/41 53/83/41
f 46/71/42 45/70/42 53/83/42 54/84/42
f 47/72/43 46/71/43 54/84/43 55/76/43
f 130/48/1 212/46/1 220/85/1 122/86/1
f 53/83/44 52/82/44 60/87/44 61/88/44
f 54/84/45 53/83/45 61/88/45 62/89/45
f 55/76/46 54/84/46 62/89/46 63/90/46
f 56/77/47 55/76/47 63/90/47 64/91/47
f 57/78/48 56/77/48 64/91/48 65/92/48
f 58/79/49 57/78/49 65/92/49 66/93/49
f 212/46/1 163/42/1 164/81/1 220/85/1
f 65/92/50 64/91/50 72/94/50 73/95/50
f 66/93/51 65/92/51 73/95/51 74/63/51
f 238/61/1 219/60/1 227/96/1 239/97/1
f 253/63/1 238/62/1 239/98/1 254/99/1
f 61/88/52 60/87/52 68/100/52 69/101/52
f 62/89/53 61/88/53 69/101/53 70/102/53
f 63/90/54 62/89/54 70/102/54 71/103/54
f 64/91/55 63/90/55 71/103/55 72/94/55
f 69/101/56 68/100/56 76/104/56 77/105/56
f 70/102/57 69/101/57 77/105/57 78/106/57
f 71/103/58 70/102/58 78/106/58 79/107/58
f 72/94/59 71/103/59 79/107/59 80/108/59
f 73/95/60 72/94/60 80/108/60 81/109/60
f 74/63/61 73/95/61 81/109/61 82/110/61
f 268/67/1 253/63/1 254/99/1 11/63/1
f 59/68/1 268/67/1 11/63/1 67/111/1
f 81/109/62 80/108/62 88/112/62 89/113/62
f 82/110/63 81/109/63 89/113/63 90/114/63
f 115/80/1 59/68/1 67/111/1 123/114/1
f 164/81/1 115/80/1 123/114/1 172/115/1
f 77/105/64 76/104/64 84/116/64 85/117/64
f 78/106/65 77/105/65 85/117/65 86/118/65
f 79/107/66 78/106/66 86/118/66 87/119/66
f 80/108/67 79/107/67 87/119/67 88/112/67
f 86/118/68 85/117/68 93/120/68 94/121/68
f 87/119/69 86/118/69 94/121/69 95/122/69
f 88/112/70 87/119/70 95/122/70 96/123/70
f 89/113/71 88/112/71 96/123/71 97/124/71
f 90/114/72 89/113/72 97/124/72 98/125/72
f 220/85/1 164/81/1 172/115/1 228/126/1
f 122/86/1 220/85/1 228/126/1 114/127/1
f 85/117/73 84/116/73 92/128/73 93/120/73
f 98/125/74 97/124/74 105/129/74 106/81/74
f 239/97/1 227/96/1 235/130/1 240/131/1
f 254/99/1 239/98/1 240/132/1 255/133/1
f 93/120/75 92/128/75 100/134/75 101/135/75
f 94/121/76 93/120/76 101/135/76 102/136/76
f 95/122/77 94/121/77 102/136/77 103/137/77
f 96/123/78 95/122/78 103/137/78 104/138/78
f 97/124/79 96/123/79 104/138/79 105/129/79
f 103/137/80 102/136/80 110/139/80 111/140/80
f 104/138/81 103/137/81 111/140/81 112/141/81
f 105/129/82 104/138/82 112/141/82 113/142/82
f 106/81/83 105/129/83 113/142/83 114/127/83
f 11/63/1 254/99/1 255/133/1 19/143/1
f 67/111/1 11/63/1 19/143/1 75/63/1
f 101/135/84 100/134/84 108/144/84 109/145/84
f 102/136/85 101/135/85 109/145/85 110/139/85
f 123/114/1 67/111/1 75/63/1 131/146/1
f 172/115/1 123/114/1 131/146/1 180/147/1
f 109/145/86 108/144/86 116/148/86 117/149/86
f 110/139/87 109/145/87 117/149/87 118/150/87
f 111/140/88 110/139/88 118/150/88 119/151/88
f 112/141/89 111/140/89 119/151/89 120/152/89
f 113/142/90 112/141/90 120/152/90 121/153/90
f 114/127/91 113/142/91 121/153/91 122/86/91
f 119/151/92 118/150/92 126/154/92 127/155/92
f 120/152/93 119/151/93 127/155/93 128/156/93
f 121/153/94 120/152/94 128/156/94 129/157/94
f 122/86/95 121/153/95 129/157/95 130/48/95
f 228/126/1 172/115/1 180/147/1 236/158/1
f 114/127/1 228/126/1 236/158/1 106/81/1
f 117/149/96 116/148/96 124/159/96 125/160/96
f 118/150/97 117/149/97 125/160/97 126/154/97
f 240/131/1 235/130/1 248/161/1 241/162/1
f 255/133/1 240/132/1 241/163/1 256/164/1
f 125/160/98 124/159/98 132/165/98 133/166/98
f 126/154/99 125/160/99 133/166/99 134/167/99
f 127/155/100 126/154/100 134/167/100 135/168/100
f 128/156/101 127/155/101 135/168/101 136/169/101
f 129/157/102 128/156/102 136/169/102 137/170/102
f 130/48/103 129/157/103 137/170/103 138/47/103
f 136/169/104 135/168/104 143/171/104 144/172/104
f 137/170/105 136/169/105 144/172/105 145/173/105
f 138/47/106 137/170/106 145/173/106 146/45/106
f 19/143/1 255/133/1 256/164/1 27/79/1
f 75/63/1 19/143/1 27/79/1 83/174/1
f 133/166/107 132/165/107 140/175/107 141/176/107
f 134/167/108 133/166/108 141/176/108 142/177/108
f 135/168/109 134/167/109 142/177/109 143/171/109
f 180/147/1 131/146/1 139/63/1 188/178/1
f 141/176/110 140/175/110 148/179/110 149/180/110
f 142/177/111 141/176/111 149/180/111 150/181/111
f 143/171/112 142/177/112 150/181/112 151/182/112
f 144/172/113 143/171/113 151/182/113 152/183/113
f 145/173/114 144/172/114 152/183/114 153/184/114
f 146/45/115 145/173/115 153/184/115 154/41/115
f 131/146/1 75/63/1 83/174/1 139/63/1
f 152/183/116 151/182/116 159/185/116 160/186/116
f 153/184/117 152/183/117 160/186/117 161/187/117
f 154/41/118 153/184/118 161/187/118 162/39/118
f 236/158/1 180/147/1 188/178/1 249/188/1
f 106/81/1 236/158/1 249/188/1 98/125/1
f 149/180/119 148/179/119 156/189/119 157/190/119
f 150/181/120 149/180/120 157/190/120 158/191/120
f 151/182/121 150/181/121 158/191/121 159/185/121
f 256/164/1 241/163/1 250/192/1 265/193/1
f 157/190/122 156/189/122 165/194/122 166/195/122
f 158/191/123 157/190/123 166/195/123 167/196/123
f 159/185/124 158/191/124 167/196/124 168/197/124
f 160/186/125 159/185/125 168/197/125 169/198/125
f 161/187/126 160/186/126 169/198/126 170/199/126
f 162/39/127 161/187/127 170/199/127 171/1/127
f 241/162/1 248/161/1 263/200/1 250/201/1
f 170/199/128 169/198/128 177/202/128 178/203/128
f 171/1/129 170/199/129 178/203/129 179/2/129
f 196/21/1 147/204/1 155/205/1 204/206/1
f 83/174/1 27/79/1 35/207/1 91/208/1
f 166/195/130 165/194/130 173/209/130 174/210/130
f 167/196/131 166/195/131 174/210/131 175/211/131
f 168/197/132 167/196/132 175/211/132 176/212/132
f 169/198/133 168/197/133 176/212/133 177/202/133
f 175/211/134 174/210/134 182/213/134 183/214/134
f 176/212/135 175/211/135 183/214/135 184/215/135
f 177/202/136 176/212/136 184/215/136 185/216/136
f 178/203/137 177/202/137 185/216/137 186/217/137
f 179/2/138 178/203/138 186/217/138 187/19/138
f 264/218/1 196/21/1 204/206/1 273/21/1
f 139/63/1 83/174/1 91/208/1 147/204/1
f 174/210/139 173/209/139 181/219/139 182/213/139
f 187/19/140 186/217/140 194/220/140 195/20/140
f 90/114/1 264/218/1 273/21/1 82/110/1
f 188/178/1 139/63/1 147/204/1 196/21/1
f 182/213/141 181/219/141 189/221/141 190/222/141
f 183/214/142 182/213/142 190/222/142 191/223/142
f 184/215/143 183/214/143 191/223/143 192/224/143
f 185/216/144 184/215/144 192/224/144 193/225/144
f 186/217/145 185/216/145 193/225/145 194/220/145
f 191/226/146 190/227/146 198/228/146 199/229/146
f 192/230/147 191/226/147 199/229/147 200/231/147
f 193/232/148 192/230/148 200/231/148 201/233/148
f 194/234/149 193/232/149 201/233/149 202/235/149
f 195/25/150 194/234/150 202/235/150 203/26/150
f 251/236/1 272/17/1 10/18/1 18/24/1
f 249/188/1 188/178/1 196/21/1 264/218/1
f 190/227/151 189/237/151 197/238/151 198/228/151
f 203/26/152 202/235/152 210/239/152 211/27/152
f 266/240/1 251/241/1 18/24/1 26/38/1
f 98/125/1 249/188/1 264/218/1 90/114/1
f 198/228/153 197/238/153 205/242/153 206/243/153
f 199/229/154 198/228/154 206/243/154 207/244/154
f 200/231/155 199/229/155 207/244/155 208/245/155
f 201/233/156 200/231/156 208/245/156 209/246/156
f 202/235/157 201/233/157 209/246/157 210/239/157
f 208/245/158 207/244/158 215/247/158 216/248/158
f 209/246/159 208/245/159 216/248/159 217/249/159
f 210/239/160 209/246/160 217/249/160 218/250/160
f 211/27/161 210/239/161 218/250/161 219/60/161
f 43/251/1 266/240/1 26/38/1 34/55/1
f 250/201/1 263/200/1 272/17/1 251/236/1
f 206/243/162 205/242/162 213/252/162 214/253/162
f 207/244/163 206/243/163 214/253/163 215/247/163
f 99/254/1 43/251/1 34/55/1 42/59/1
f 265/193/1 250/192/1 251/241/1 266/240/1
f 214/253/164 213/252/164 221/255/164 222/256/164
f 215/247/165 214/253/165 222/256/165 223/257/165
f 216/248/166 215/247/166 223/257/166 224/258/166
f 217/249/167 216/248/167 224/258/167 225/259/167
f 218/250/168 217/249/168 225/259/168 226/260/168
f 219/60/169 218/250/169 226/260/169 227/96/169
f 224/258/170 223/257/170 231/261/170 232/262/170
f 225/259/171 224/258/171 232/262/171 233/263/171
f 226/260/172 225/259/172 233/263/172 234/264/172
f 227/96/173 226/260/173 234/264/173 235/130/173
f 155/205/1 99/254/1 42/59/1 50/75/1
f 35/207/1 265/193/1 266/240/1 43/251/1
f 222/256/174 221/255/174 229/265/174 230/266/174
f 223/257/175 222/256/175 230/266/175 231/261/175
f 204/206/1 155/205/1 50/75/1 58/79/1
f 91/208/1 35/207/1 43/251/1 99/254/1
f 230/266/176 229/265/176 242/267/176 243/268/176
f 231/261/177 230/266/177 243/268/177 244/269/177
f 232/262/178 231/261/178 244/269/178 245/270/178
f 233/263/179 232/262/179 245/270/179 246/271/179
f 234/264/180 233/263/180 246/271/180 247/272/180
f 235/130/181 234/264/181 247/272/181 248/161/181
f 246/271/182 245/270/182 260/273/182 261/274/182
f 247/272/183 246/271/183 261/274/183 262/275/183
f 248/161/184 247/272/184 262/275/184 263/200/184
f 273/21/1 204/206/1 58/79/1 66/93/1
f 147/204/1 91/208/1 99/254/1 155/205/1
f 243/268/185 242/267/185 257/276/185 258/277/185
f 244/269/186 243/268/186 258/277/186 259/278/186
f 245/270/187 244/269/187 259/278/187 260/273/187
f 27/79/1 256/164/1 265/193/1 35/207/1
f 258/277/188 257/276/188 1/6/188 2/5/188
f 259/278/189 258/277/189 2/5/189 269/9/189
f 260/273/190 259/278/190 269/9/190 3/11/190
f 261/274/191 260/273/191 3/11/191 270/13/191
f 262/275/192 261/274/192 270/13/192 271/15/192
f 263/200/193 262/275/193 271/15/193 272/17/193
f 82/110/1 273/21/1 66/93/1 74/63/1
f 274/1/194 275/4/194 276/3/194 277/2/194
f 278/5/195 279/8/195 280/7/195 281/6/195
f 282/9/196 283/10/196 279/8/196 278/5/196
f 284/11/197 285/12/197 283/10/197 282/9/197
f 286/13/198 287/14/198 285/12/198 284/11/198
f 288/15/199 289/16/199 287/14/199 286/13/199
f 290/17/200 291/18/200 289/16/200 288/15/200
f 292/19/201 293/22/201 294/21/201 295/20/201
f 291/18/202 296/24/202 297/23/202 289/16/202
f 295/25/203 294/28/203 298/27/203 299/26/203
f 277/2/204 276/3/204 293/22/204 292/19/204
f 279/8/205 300/30/205 301/29/205 280/7/205
f 283/10/206 302/31/206 300/30/206 279/8/206
f 285/12/207 303/32/207 302/31/207 283/10/207
f 287/14/208 304/33/208 303/32/208 285/12/208
f 289/16/209 297/23/209 304/33/209 287/14/209
f 303/32/210 305/35/210 306/34/210 302/31/210
f 304/33/211 307/36/211 305/35/211 303/32/211
f 297/23/212 308/37/212 307/36/212 304/33/212
f 296/24/213 309/38/213 308/37/213 297/23/213
f 310/39/214 311/40/214 275/4/214 274/1/214
f 312/41/215 313/42/215 311/40/215 310/39/215
f 300/30/216 314/44/216 315/43/216 301/29/216
f 302/31/217 306/34/217 314/44/217 300/30/217
f 316/45/218 317/46/218 313/42/218 312/41/218
f 318/47/219 319/48/219 317/46/219 316/45/219
f 314/44/220 320/50/220 321/49/220 315/43/220
f 306/34/221 322/51/221 320/50/221 314/44/221
f 305/35/222 323/52/222 322/51/222 306/34/222
f 307/36/223 324/53/223 323/52/223 305/35/223
f 308/37/224 325/54/224 324/53/224 307/36/224
f 309/38/225 326/55/225 325/54/225 308/37/225
f 324/53/226 327/57/226 328/56/226 323/52/226
f 325/54/227 329/58/227 327/57/227 324/53/227
f 326/55/228 330/59/228 329/58/228 325/54/228
f 294/28/229 331/61/229 332/60/229 298/27/229
f 293/22/230 333/63/230 331/62/230 294/21/230
f 320/50/231 334/65/231 335/64/231 321/49/231
f 322/51/232 336/66/232 334/65/232 320/50/232
f 323/52/233 328/56/233 336/66/233 322/51/233
f 275/4/230 337/68/230 338/67/230 276/3/230
f 334/65/234 339/70/234 340/69/234 335/64/234
f 336/66/235 341/71/235 339/70/235 334/65/235
f 328/56/236 342/72/236 341/71/236 336/66/236
f 327/57/237 343/73/237 342/72/237 328/56/237
f 329/58/238 344/74/238 343/73/238 327/57/238
f 330/59/239 345/75/239 344/74/239 329/58/239
f 276/3/230 338/67/230 333/63/230 293/22/230
f 343/73/240 346/77/240 347/76/240 342/72/240
f 344/74/241 348/78/241 346/77/241 343/73/241
f 345/75/242 349/79/242 348/78/242 344/74/242
f 311/40/230 350/80/230 337/68/230 275/4/230
f 313/42/230 351/81/230 350/80/230 311/40/230
f 339/70/243 352/83/243 353/82/243 340/69/243
f 341/71/244 354/84/244 352/83/244 339/70/244
f 342/72/245 347/76/245 354/84/245 341/71/245
f 319/48/246 355/86/246 356/85/246 317/46/246
f 352/83/247 357/88/247 358/87/247 353/82/247
f 354/84/248 359/89/248 357/88/248 352/83/248
f 347/76/249 360/90/249 359/89/249 354/84/249
f 346/77/250 361/91/250 360/90/250 347/76/250
f 348/78/251 362/92/251 361/91/251 346/77/251
f 349/79/252 363/93/252 362/92/252 348/78/252
f 317/46/230 356/85/230 351/81/230 313/42/230
f 362/92/253 364/95/253 365/94/253 361/91/253
f 363/93/254 366/63/254 364/95/254 362/92/254
f 331/61/255 367/97/255 368/96/255 332/60/255
f 333/63/230 369/99/230 367/98/230 331/62/230
f 357/88/256 370/101/256 371/100/256 358/87/256
f 359/89/257 372/102/257 370/101/257 357/88/257
f 360/90/258 373/103/258 372/102/258 359/89/258
f 361/91/259 365/94/259 373/103/259 360/90/259
f 370/101/260 374/105/260 375/104/260 371/100/260
f 372/102/261 376/106/261 374/105/261 370/101/261
f 373/103/262 377/107/262 376/106/262 372/102/262
f 365/94/263 378/108/263 377/107/263 373/103/263
f 364/95/264 379/109/264 378/108/264 365/94/264
f 366/63/265 380/110/265 379/109/265 364/95/265
f 338/67/230 381/63/230 369/99/230 333/63/230
f 337/68/230 382/111/230 381/63/230 338/67/230
f 379/109/266 383/113/266 384/112/266 378/108/266
f 380/110/267 385/114/267 383/113/267 379/109/267
f 350/80/230 386/114/230 382/111/230 337/68/230
f 351/81/230 387/115/230 386/114/230 350/80/230
f 374/105/268 388/117/268 389/116/268 375/104/268
f 376/106/269 390/118/269 388/117/269 374/105/269
f 377/107/270 391/119/270 390/118/270 376/106/270
f 378/108/271 384/112/271 391/119/271 377/107/271
f 390/118/272 392/121/272 393/120/272 388/117/272
f 391/119/273 394/122/273 392/121/273 390/118/273
f 384/112/274 395/123/274 394/122/274 391/119/274
f 383/113/275 396/124/275 395/123/275 384/112/275
f 385/114/276 397/125/276 396/124/276 383/113/276
f 356/85/230 398/126/230 387/115/230 351/81/230
f 355/86/277 399/127/277 398/126/277 356/85/277
f 388/117/278 393/120/278 400/128/278 389/116/278
f 397/125/279 401/81/279 402/129/279 396/124/279
f 367/97/280 403/131/280 404/130/280 368/96/280
f 369/99/230 405/133/230 403/132/230 367/98/230
f 393/120/281 406/135/281 407/134/281 400/128/281
f 392/121/282 408/136/282 406/135/282 393/120/282
f 394/122/283 409/137/283 408/136/283 392/121/283
f 395/123/284 410/138/284 409/137/284 394/122/284
f 396/124/285 402/129/285 410/138/285 395/123/285
f 409/137/286 411/140/286 412/139/286 408/136/286
f 410/138/287 413/141/287 411/140/287 409/137/287
f 402/129/288 414/142/288 413/141/288 410/138/288
f 401/81/289 399/127/289 414/142/289 402/129/289
f 381/63/230 415/143/230 405/133/230 369/99/230
f 382/111/230 416/63/230 415/143/230 381/63/230
f 406/135/290 417/145/290 418/144/290 407/134/290
f 408/136/291 412/139/291 417/145/291 406/135/291
f 386/114/230 419/146/230 416/63/230 382/111/230
f 387/115/230 420/147/230 419/146/230 386/114/230
f 417/145/292 421/149/292 422/148/292 418/144/292
f 412/139/293 423/150/293 421/149/293 417/145/293
f 411/140/294 424/151/294 423/150/294 412/139/294
f 413/141/295 425/152/295 424/151/295 411/140/295
f 414/142/296 426/153/296 425/152/296 413/141/296
f 399/127/297 355/86/297 426/153/297 414/142/297
f 424/151/298 427/155/298 428/154/298 423/150/298
f 425/152/299 429/156/299 427/155/299 424/151/299
f 426/153/300 430/157/300 429/156/300 425/152/300
f 355/86/301 319/48/301 430/157/301 426/153/301
f 398/126/230 431/158/230 420/147/230 387/115/230
f 399/127/302 401/81/302 431/158/302 398/126/302
f 421/149/303 432/160/303 433/159/303 422/148/303
f 423/150/304 428/154/304 432/160/304 421/149/304
f 403/131/305 434/162/305 435/161/305 404/130/305
f 405/133/230 436/164/230 434/163/230 403/132/230
f 432/160/306 437/166/306 438/165/306 433/159/306
f 428/154/307 439/167/307 437/166/307 432/160/307
f 427/155/308 440/168/308 439/167/308 428/154/308
f 429/156/309 441/169/309 440/168/309 427/155/309
f 430/157/310 442/170/310 441/169/310 429/156/310
f 319/48/311 318/47/311 442/170/311 430/157/311
f 441/169/312 443/172/312 444/171/312 440/168/312
f 442/170/313 445/173/313 443/172/313 441/169/313
f 318/47/314 316/45/314 445/173/314 442/170/314
f 415/143/230 446/79/230 436/164/230 405/133/230
f 416/63/230 447/174/230 446/79/230 415/143/230
f 437/166/315 448/176/315 449/175/315 438/165/315
f 439/167/316 450/177/316 448/176/316 437/166/316
f 440/168/317 444/171/317 450/177/317 439/167/317
f 420/147/230 451/178/230 452/63/230 419/146/230
f 448/176/318 453/180/318 454/179/318 449/175/318
f 450/177/319 455/181/319 453/180/319 448/176/319
f 444/171/320 456/182/320 455/181/320 450/177/320
f 443/172/321 457/183/321 456/182/321 444/171/321
f 445/173/322 458/184/322 457/183/322 443/172/322
f 316/45/323 312/41/323 458/184/323 445/173/323
f 419/146/230 452/63/230 447/174/230 416/63/230
f 457/183/324 459/186/324 460/185/324 456/182/324
f 458/184/325 461/187/325 459/186/325 457/183/325
f 312/41/326 310/39/326 461/187/326 458/184/326
f 431/158/230 462/188/230 451/178/230 420/147/230
f 401/81/327 397/125/327 462/188/327 431/158/327
f 453/180/328 463/190/328 464/189/328 454/179/328
f 455/181/329 465/191/329 463/190/329 453/180/329
f 456/182/330 460/185/330 465/191/330 455/181/330
f 436/164/230 466/193/230 467/192/230 434/163/230
f 463/190/331 468/195/331 469/194/331 464/189/331
f 465/191/332 470/196/332 468/195/332 463/190/332
f 460/185/333 471/197/333 470/196/333 465/191/333
f 459/186/334 472/198/334 471/197/334 460/185/334
f 461/187/335 473/199/335 472/198/335 459/186/335
f 310/39/336 274/1/336 473/199/336 461/187/336
f 434/162/337 467/201/337 474/200/337 435/161/337
f 473/199/338 475/203/338 476/202/338 472/198/338
f 274/1/339 277/2/339 475/203/339 473/199/339
f 477/21/230 478/206/230 479/205/230 480/204/230
f 447/174/230 481/208/230 482/207/230 446/79/230
f 468/195/340 483/210/340 484/209/340 469/194/340
f 470/196/341 485/211/341 483/210/341 468/195/341
f 471/197/342 486/212/342 485/211/342 470/196/342
f 472/198/343 476/202/343 486/212/343 471/197/343
f 485/211/344 487/214/344 488/213/344 483/210/344
f 486/212/345 489/215/345 487/214/345 485/211/345
f 476/202/346 490/216/346 489/215/346 486/212/346
f 475/203/347 491/217/347 490/216/347 476/202/347
f 277/2/348 292/19/348 491/217/348 475/203/348
f 492/218/230 493/21/230 478/206/230 477/21/230
f 452/63/230 480/204/230 481/208/230 447/174/230
f 483/210/349 488/213/349 494/219/349 484/209/349
f 292/19/350 295/20/350 495/220/350 491/217/350
f 385/114/351 380/110/351 493/21/351 492/218/351
f 451/178/230 477/21/230 480/204/230 452/63/230
f 488/213/352 496/222/352 497/221/352 494/219/352
f 487/214/353 498/223/353 496/222/353 488/213/353
f 489/215/354 499/224/354 498/223/354 487/214/354
f 490/216/355 500/225/355 499/224/355 489/215/355
f 491/217/356 495/220/356 500/225/356 490/216/356
f 498/226/357 501/229/357 502/228/357 496/227/357
f 499/230/358 503/231/358 501/229/358 498/226/358
f 500/232/359 504/233/359 503/231/359 499/230/359
f 495/234/360 505/235/360 504/233/360 500/232/360
f 295/25/361 299/26/361 505/235/361 495/234/361
f 506/236/362 296/24/362 291/18/362 290/17/362
f 462/188/230 492/218/230 477/21/230 451/178/230
f 496/227/363 502/228/363 507/238/363 497/237/363
f 299/26/364 298/27/364 508/239/364 505/235/364
f 509/240/365 309/38/365 296/24/365 506/241/365
f 397/125/366 385/114/366 492/218/366 462/188/366
f 502/228/367 510/243/367 511/242/367 507/238/367
f 501/229/368 512/244/368 510/243/368 502/228/368
f 503/231/369 513/245/369 512/244/369 501/229/369
f 504/233/370 514/246/370 513/245/370 503/231/370
f 505/235/371 508/239/371 514/246/371 504/233/371
f 513/245/372 515/248/372 516/247/372 512/244/372
f 514/246/373 517/249/373 515/248/373 513/245/373
f 508/239/374 518/250/374 517/249/374 514/246/374
f 298/27/375 332/60/375 518/250/375 508/239/375
f 519/251/376 326/55/376 309/38/376 509/240/376
f 467/201/377 506/236/377 290/17/377 474/200/377
f 510/243/378 520/253/378 521/252/378 511/242/378
f 512/244/379 516/247/379 520/253/379 510/243/379
f 522/254/380 330/59/380 326/55/380 519/251/380
f 466/193/230 509/240/230 506/241/230 467/192/230
f 520/253/381 523/256/381 524/255/381 521/252/381
f 516/247/382 525/257/382 523/256/382 520/253/382
f 515/248/383 526/258/383 525/257/383 516/247/383
f 517/249/384 527/259/384 526/258/384 515/248/384
f 518/250/385 528/260/385 527/259/385 517/249/385
f 332/60/386 368/96/386 528/260/386 518/250/386
f 526/258/387 529/262/387 530/261/387 525/257/387
f 527/259/388 531/263/388 529/262/388 526/258/388
f 528/260/389 532/264/389 531/263/389 527/259/389
f 368/96/390 404/130/390 532/264/390 528/260/390
f 479/205/391 345/75/391 330/59/391 522/254/391
f 482/207/230 519/251/230 509/240/230 466/193/230
f 523/256/392 533/266/392 534/265/392 524/255/392
f 525/257/393 530/261/393 533/266/393 523/256/393
f 478/206/394 349/79/394 345/75/394 479/205/394
f 481/208/230 522/254/230 519/251/230 482/207/230
f 533/266/395 535/268/395 536/267/395 534/265/395
f 530/261/396 537/269/396 535/268/396 533/266/396
f 529/262/397 538/270/397 537/269/397 530/261/397
f 531/263/398 539/271/398 538/270/398 529/262/398
f 532/264/399 540/272/399 539/271/399 531/263/399
f 404/130/400 435/161/400 540/272/400 532/264/400
f 539/271/401 541/274/401 542/273/401 538/270/401
f 540/272/402 543/275/402 541/274/402 539/271/402
f 435/161/403 474/200/403 543/275/403 540/272/403
f 493/21/404 363/93/404 349/79/404 478/206/404
f 480/204/230 479/205/230 522/254/230 481/208/230
f 535/268/405 544/277/405 545/276/405 536/267/405
f 537/269/406 546/278/406 544/277/406 535/268/406
f 538/270/407 542/273/407 546/278/407 537/269/407
f 446/79/230 482/207/230 466/193/230 436/164/230
f 544/277/408 278/5/408 281/6/408 545/276/408
f 546/278/409 282/9/409 278/5/409 544/277/409
f 542/273/410 284/11/410 282/9/410 546/278/410
f 541/274/411 286/13/411 284/11/411 542/273/411
f 543/275/412 288/15/412 286/13/412 541/274/412
f 474/200/413 290/17/413 288/15/413 543/275/413
f 380/110/414 366/63/414 363/93/414 493/21/414
f 68/100/415 60/87/415 358/87/415 371/100/415
f 205/242/416 197/238/416 507/238/416 511/242/416
f 12/29/417 4/7/417 280/7/417 301/29/417
f 4/7/418 1/6/418 281/6/418 280/7/418
f 140/175/419 132/165/419 438/165/419 449/175/419
f 221/255/420 213/252/420 521/252/420 524/255/420
f 197/238/421 189/237/421 497/237/421 507/238/421
f 84/116/422 76/104/422 375/104/422 389/116/422
f 28/49/423 20/43/423 315/43/423 321/49/423
f 44/69/424 36/64/424 335/64/424 340/69/424
f 165/194/425 156/189/425 464/189/425 469/194/425
f 213/252/426 205/242/426 511/242/426 521/252/426
f 100/134/427 92/128/427 400/128/427 407/134/427
f 20/43/428 12/29/428 301/29/428 315/43/428
f 156/189/429 148/179/429 454/179/429 464/189/429
f 116/148/430 108/144/430 418/144/430 422/148/430
f 242/267/431 229/265/431 534/265/431 536/267/431
f 92/128/432 84/116/432 389/116/432 400/128/432
f 257/276/433 242/267/433 536/267/433 545/276/433
f 36/64/434 28/49/434 321/49/434 335/64/434
f 229/265/435 221/255/435 524/255/435 534/265/435
f 173/209/436 165/194/436 469/194/436 484/209/436
f 60/87/437 52/82/437 353/82/437 358/87/437
f 108/144/438 100/134/438 407/134/438 418/144/438
f 1/6/439 257/276/439 545/276/439 281/6/439
f 189/221/440 181/219/440 494/219/440 497/221/440
f 132/165/441 124/159/441 433/159/441 438/165/441
f 52/82/442 44/69/442 340/69/442 353/82/442
f 148/179/443 140/175/443 449/175/443 454/179/443
f 76/104/444 68/100/444 371/100/444 375/104/444
f 181/219/445 173/209/445 484/209/445 494/219/445
f 124/159/446 116/148/446 422/148/446 433/159/446
